poster: 
http://imgh.us/404948_327375310638470_114944651881538_973660_1782177750_n.jpg

General
Complete name : /mnt/sdc1/rahulraj/files/Nidra (2012) - Malayalam Movie - DVDRip - XviD - 1CDRip - Exclusive/Nidra (2012) - Malayalam Movie - DVDRip - XviD - 1CDRip - Exclusive.avi
Format : AVI
Format/Info : Audio Video Interleave
File size : 1.41 GiB
Duration : 1h 43mn
Overall bit rate : 1 952 Kbps

Video
ID : 0
Format : MPEG-4 Visual
Format profile : Advanced Simple@L5
Format settings, BVOP : 2
Format settings, QPel : No
Format settings, GMC : No warppoints
Format settings, Matrix : Default (H.263)
Codec ID : XVID
Codec ID/Hint : XviD
Duration : 1h 43mn
Bit rate : 1 688 Kbps
Width : 720 pixels
Height : 304 pixels
Display aspect ratio : 2.35:1
Frame rate : 23.976 fps
Color space : YUV
Chroma subsampling : 4:2:0
Bit depth : 8 bits
Scan type : Progressive
Compression mode : Lossy
Bits/(Pixel*Frame) : 0.322
Stream size : 1.22 GiB (86%)
Writing library : XviD 1.2.1 (UTC 2008-12-04)

Audio
ID : 1
Format : AC-3
Format/Info : Audio Coding 3
Mode extension : CM (complete main)
Codec ID : 2000
Duration : 1h 43mn
Bit rate mode : Constant
Bit rate : 256 Kbps
Channel(s) : 6 channels
Channel positions : Front: L C R, Side: L R, LFE
Sampling rate : 48.0 KHz
Bit depth : 16 bits
Compression mode : Lossy
Stream size : 190 MiB (13%)
Alignment : Aligned on interleaves
Interleave, duration : 64 ms (1.53 video frames)
Interleave, preload duration : 192 ms
Title : nidra T80 3_2ch 448Kbps DELAY 0ms_new

SCREENS: 
http://www.shotpix.com/images/03715784953353426045.jpg 
http://www.shotpix.com/images/81912309100585232250.jpg 
http://www.shotpix.com/images/46227330158629710289.jpg 
http://www.shotpix.com/images/51187708589354327259.jpg 
http://www.shotpix.com/images/81840573847635311887.jpg 
http://www.shotpix.com/images/84035840155721108813.jpg 
http://www.shotpix.com/images/06774667762240963606.jpg 
http://www.shotpix.com/images/36621706000622982572.jpg 
http://www.shotpix.com/images/41226011379048018686.jpg 
http://www.shotpix.com/images/65203927078560799868.jpg 
http://www.shotpix.com/images/98866033778965267369.jpg